<svg height="395pt" viewBox="0 0 395 395.94667" width="395pt" xmlns="http://www.w3.org/2000/svg"><path d="m198.445312 395.945312c-58.835937 0-114.195312-27.632812-152.480468-75.953124l-9.953125.992187c-.234375.023437-.761719.03125-.695313.035156-9.996094-.023437-18.957031-5.097656-23.964844-13.574219-4.945312-8.363281-5.085937-18.472656-.390624-27.035156 1.765624-3.21875 3.671874-6.449218 5.773437-9.804687-10.792969-25.601563-16.261719-52.398438-16.261719-79.710938 0-107.042969 86.957032-190.894531 197.972656-190.894531 111.011719 0 197.972657 83.851562 197.972657 190.894531 0 27.363281-5.492188 54.214844-16.324219 79.863281 2.3125 3.699219 4.339844 7.144532 6.132812 10.46875 4.664063 8.585938 4.472657 18.695313-.5 27.042969-5.039062 8.453125-13.707031 13.476563-24.027343 13.46875-.234375 0-.460938-.011719-.691407-.035156l-10.5625-1.097656c-38.265624 47.929687-93.453124 75.339843-152 75.339843zm-149.40625-89.945312c2.113282 0 4.125.980469 5.425782 2.679688 35.738281 46.78125 88.21875 73.613281 143.980468 73.613281 55.492188 0 107.8125-26.621094 143.546876-73.035157 1.4375-1.875 3.726562-2.875 6.113281-2.628906l13.933593 1.449219c5.003907-.089844 9.457032-2.617187 11.957032-6.804687 2.523437-4.226563 2.609375-9.160157.230468-13.539063-2.128906-3.929687-4.601562-8.066406-7.570312-12.660156-1.246094-1.933594-1.4375-4.363281-.503906-6.46875 11.019531-24.914063 16.609375-51.058594 16.609375-77.714844.003906-99.382813-80.957031-177.238281-184.316407-177.238281-103.359374 0-184.320312 77.855468-184.320312 177.242187 0 26.601563 5.566406 52.699219 16.554688 77.566407.925781 2.105468.730468 4.539062-.515626 6.46875-2.726562 4.210937-5.09375 8.152343-7.238281 12.050781-2.386719 4.355469-2.320312 9.285156.179688 13.523437 2.476562 4.199219 6.917969 6.746094 11.925781 6.859375l13.324219-1.332031c.230469-.023438.457031-.03125.683593-.03125zm0 0"/><path d="m280.363281 170.667969h-40.957031c-2.523438 0-4.835938-1.386719-6.019531-3.609375-1.1875-2.21875-1.054688-4.910156.339843-7.003906l16.386719-24.578126c2.078125-3.136718 6.3125-3.988281 9.464844-1.890624 3.140625 2.089843 3.988281 6.328124 1.894531 9.464843l-9.308594 13.960938h28.199219c3.773438 0 6.828125 3.058593 6.828125 6.828125 0 3.769531-3.054687 6.828125-6.828125 6.828125zm0 0"/><path d="m157.484375 170.667969h-40.960937c-3.773438 0-6.824219-3.058594-6.824219-6.828125 0-3.769532 3.050781-6.828125 6.824219-6.828125h28.199218l-9.304687-13.960938c-2.09375-3.136719-1.246094-7.375 1.890625-9.464843 3.140625-2.097657 7.375-1.246094 9.46875 1.890624l16.386718 24.578126c1.394532 2.09375 1.527344 4.789062.339844 7.003906-1.1875 2.222656-3.5 3.609375-6.019531 3.609375zm0 0"/><path d="m184.796875 172.03125c-2.207031 0-4.371094-1.066406-5.683594-3.039062l-54.613281-81.921876c-2.09375-3.136718-1.246094-7.375 1.890625-9.464843 3.140625-2.09375 7.375-1.242188 9.46875 1.890625l54.613281 81.921875c2.09375 3.136719 1.246094 7.375-1.894531 9.464843-1.167969.777344-2.480469 1.148438-3.78125 1.148438zm0 0"/><path d="m212.089844 172.03125c-1.300782 0-2.609375-.371094-3.777344-1.144531-3.140625-2.09375-3.988281-6.332031-1.894531-9.46875l54.613281-81.917969c2.085938-3.136719 6.320312-3.988281 9.46875-1.894531 3.140625 2.089843 3.984375 6.332031 1.890625 9.46875l-54.613281 81.917969c-1.3125 1.972656-3.480469 3.039062-5.6875 3.039062zm0 0"/><path d="m332.34375 269.886719c-26.34375-48.566407-77.660156-78.738281-133.914062-78.738281-55.964844 0-107.160157 29.949218-133.597657 78.160156-3.652343 6.65625-3.53125 14.519531.308594 21.019531 3.882813 6.585937 10.839844 10.523437 18.59375 10.542969.285156 0 .460937-.011719.691406-.035156l93.265625-9.304688c13.757813-1.375 27.714844-1.34375 41.460938.085938l93.46875 9.722656c.246094.023437.503906.035156.738281.035156 7.742187 0 14.6875-3.90625 18.59375-10.457031 3.871094-6.492188 4.019531-14.351563.390625-21.03125zm-222.644531-35.347657c24.503906-18.605468 55.269531-29.738281 88.730469-29.738281 36.660156 0 70.082031 13.355469 95.570312 35.28125-.058594 3.523438-3.179688 6.222657-6.683594 5.722657l-50.722656-7.242188c-25.292969-3.613281-50.980469-3.476562-76.234375.40625l-43.890625 6.753906c-3.558594.542969-6.769531-2.207031-6.769531-5.808594zm184.320312 53.179688-57.425781-8.199219c-25.292969-3.613281-50.980469-3.476562-76.234375.40625l-50.660156 7.792969v-20.605469c0-3.851562 2.8125-7.128906 6.621093-7.714843l44.039063-6.777344c25.253906-3.882813 50.941406-4.019532 76.234375-.40625l50.722656 7.242187c3.84375.550781 6.703125 3.84375 6.703125 7.730469zm0 0"/></svg>