<svg height="395.94667pt" viewBox="0 0 395.94667 395.94667" width="395.94667pt" xmlns="http://www.w3.org/2000/svg"><path d="m197.972656 395.945312c-107.3125 0-197.972656-93.902343-197.972656-205.050781 0-107.042969 86.960938-190.894531 197.972656-190.894531 111.015625 0 197.972656 83.851562 197.972656 190.894531 0 111.148438-90.660156 205.050781-197.972656 205.050781zm0-382.292968c-103.355468 0-184.320312 77.855468-184.320312 177.242187 0 103.746094 84.40625 191.398438 184.320312 191.398438 99.914063 0 184.320313-87.652344 184.320313-191.398438 0-99.386719-80.960938-177.242187-184.320313-177.242187zm0 0"/><path d="m194.324219 184.320312c-37.125 0-70.863281-13.296874-90.25-35.566406-2.472657-2.84375-2.175781-7.15625.667969-9.628906 2.839843-2.476562 7.160156-2.179688 9.636718.667969 16.574219 19.042969 47.210938 30.875 79.945313 30.875 33.195312 0 64.042969-12.082031 80.503906-31.527344 2.441406-2.882813 6.742187-3.234375 9.621094-.800781 2.878906 2.433594 3.238281 6.742187.800781 9.621094-19.269531 22.765624-53.261719 36.359374-90.925781 36.359374zm0 0"/><path d="m273.066406 54.613281c0 7.539063-6.113281 13.652344-13.652344 13.652344-7.542968 0-13.652343-6.113281-13.652343-13.652344 0-7.539062 6.109375-13.652343 13.652343-13.652343 7.539063 0 13.652344 6.113281 13.652344 13.652343zm0 0"/><path d="m150.1875 54.613281c0 7.539063-6.113281 13.652344-13.652344 13.652344-7.542968 0-13.65625-6.113281-13.65625-13.652344 0-7.539062 6.113282-13.652343 13.65625-13.652343 7.539063 0 13.652344 6.113281 13.652344 13.652343zm0 0"/></svg>